<mxfile host="app.diagrams.net" modified="2023-08-14T01:43:39.349Z" agent="Mozilla/5.0 (Windows NT 10.0; Win64; x64) AppleWebKit/537.36 (KHTML, like Gecko) Chrome/115.0.0.0 Safari/537.36 Edg/115.0.1901.188" etag="648Z0hyZBRFgoNd715Eu" version="21.6.8" type="github">
  <diagram id="C5RBs43oDa-KdzZeNtuy" name="Page-1">
    <mxGraphModel dx="875" dy="458" grid="1" gridSize="10" guides="1" tooltips="1" connect="1" arrows="1" fold="1" page="1" pageScale="1" pageWidth="827" pageHeight="1169" math="0" shadow="0">
      <root>
        <mxCell id="WIyWlLk6GJQsqaUBKTNV-0" />
        <mxCell id="WIyWlLk6GJQsqaUBKTNV-1" parent="WIyWlLk6GJQsqaUBKTNV-0" />
        <mxCell id="OSCxxA4FSVDrNaCSg42i-14" style="edgeStyle=orthogonalEdgeStyle;rounded=0;orthogonalLoop=1;jettySize=auto;html=1;exitX=0.5;exitY=1;exitDx=0;exitDy=0;entryX=0.5;entryY=0;entryDx=0;entryDy=0;" edge="1" parent="WIyWlLk6GJQsqaUBKTNV-1" source="OSCxxA4FSVDrNaCSg42i-0" target="OSCxxA4FSVDrNaCSg42i-3">
          <mxGeometry relative="1" as="geometry" />
        </mxCell>
        <mxCell id="OSCxxA4FSVDrNaCSg42i-0" value="采集数据" style="rounded=0;whiteSpace=wrap;html=1;" vertex="1" parent="WIyWlLk6GJQsqaUBKTNV-1">
          <mxGeometry x="180" y="180" width="90" height="40" as="geometry" />
        </mxCell>
        <mxCell id="OSCxxA4FSVDrNaCSg42i-13" style="edgeStyle=orthogonalEdgeStyle;rounded=0;orthogonalLoop=1;jettySize=auto;html=1;exitX=0.5;exitY=1;exitDx=0;exitDy=0;entryX=0.5;entryY=0;entryDx=0;entryDy=0;" edge="1" parent="WIyWlLk6GJQsqaUBKTNV-1" source="OSCxxA4FSVDrNaCSg42i-1" target="OSCxxA4FSVDrNaCSg42i-0">
          <mxGeometry relative="1" as="geometry" />
        </mxCell>
        <mxCell id="OSCxxA4FSVDrNaCSg42i-1" value="开始" style="rounded=0;whiteSpace=wrap;html=1;" vertex="1" parent="WIyWlLk6GJQsqaUBKTNV-1">
          <mxGeometry x="180" y="100" width="90" height="40" as="geometry" />
        </mxCell>
        <mxCell id="OSCxxA4FSVDrNaCSg42i-15" style="edgeStyle=orthogonalEdgeStyle;rounded=0;orthogonalLoop=1;jettySize=auto;html=1;exitX=0.5;exitY=1;exitDx=0;exitDy=0;entryX=0.5;entryY=0;entryDx=0;entryDy=0;" edge="1" parent="WIyWlLk6GJQsqaUBKTNV-1" source="OSCxxA4FSVDrNaCSg42i-3" target="OSCxxA4FSVDrNaCSg42i-6">
          <mxGeometry relative="1" as="geometry" />
        </mxCell>
        <mxCell id="OSCxxA4FSVDrNaCSg42i-3" value="&lt;font color=&quot;#ff0a2b&quot;&gt;检测导数是否平稳&lt;/font&gt;" style="rhombus;whiteSpace=wrap;html=1;strokeWidth=2;fillWeight=-1;hachureGap=8;fillStyle=cross-hatch;sketch=1;" vertex="1" parent="WIyWlLk6GJQsqaUBKTNV-1">
          <mxGeometry x="165" y="250" width="120" height="60" as="geometry" />
        </mxCell>
        <mxCell id="OSCxxA4FSVDrNaCSg42i-19" style="edgeStyle=orthogonalEdgeStyle;rounded=0;orthogonalLoop=1;jettySize=auto;html=1;exitX=0.5;exitY=1;exitDx=0;exitDy=0;entryX=0.5;entryY=0;entryDx=0;entryDy=0;" edge="1" parent="WIyWlLk6GJQsqaUBKTNV-1" source="OSCxxA4FSVDrNaCSg42i-6" target="OSCxxA4FSVDrNaCSg42i-17">
          <mxGeometry relative="1" as="geometry" />
        </mxCell>
        <mxCell id="OSCxxA4FSVDrNaCSg42i-27" value="波动较小" style="edgeLabel;html=1;align=center;verticalAlign=middle;resizable=0;points=[];" vertex="1" connectable="0" parent="OSCxxA4FSVDrNaCSg42i-19">
          <mxGeometry x="0.0323" y="-1" relative="1" as="geometry">
            <mxPoint as="offset" />
          </mxGeometry>
        </mxCell>
        <mxCell id="OSCxxA4FSVDrNaCSg42i-25" style="edgeStyle=orthogonalEdgeStyle;rounded=0;orthogonalLoop=1;jettySize=auto;html=1;exitX=1;exitY=0.5;exitDx=0;exitDy=0;entryX=0;entryY=0.5;entryDx=0;entryDy=0;" edge="1" parent="WIyWlLk6GJQsqaUBKTNV-1" source="OSCxxA4FSVDrNaCSg42i-6" target="OSCxxA4FSVDrNaCSg42i-24">
          <mxGeometry relative="1" as="geometry" />
        </mxCell>
        <mxCell id="OSCxxA4FSVDrNaCSg42i-26" value="波动较大" style="edgeLabel;html=1;align=center;verticalAlign=middle;resizable=0;points=[];" vertex="1" connectable="0" parent="OSCxxA4FSVDrNaCSg42i-25">
          <mxGeometry x="-0.2207" y="-2" relative="1" as="geometry">
            <mxPoint as="offset" />
          </mxGeometry>
        </mxCell>
        <mxCell id="OSCxxA4FSVDrNaCSg42i-30" style="edgeStyle=orthogonalEdgeStyle;rounded=0;orthogonalLoop=1;jettySize=auto;html=1;exitX=0;exitY=0.5;exitDx=0;exitDy=0;" edge="1" parent="WIyWlLk6GJQsqaUBKTNV-1" source="OSCxxA4FSVDrNaCSg42i-6">
          <mxGeometry relative="1" as="geometry">
            <mxPoint x="140" y="180" as="targetPoint" />
          </mxGeometry>
        </mxCell>
        <mxCell id="OSCxxA4FSVDrNaCSg42i-33" value="否" style="edgeLabel;html=1;align=center;verticalAlign=middle;resizable=0;points=[];" vertex="1" connectable="0" parent="OSCxxA4FSVDrNaCSg42i-30">
          <mxGeometry x="0.0879" y="3" relative="1" as="geometry">
            <mxPoint as="offset" />
          </mxGeometry>
        </mxCell>
        <mxCell id="OSCxxA4FSVDrNaCSg42i-6" value="检测是否有较大的波动" style="rhombus;whiteSpace=wrap;html=1;strokeWidth=2;fillWeight=-1;hachureGap=8;fillStyle=cross-hatch;sketch=1;" vertex="1" parent="WIyWlLk6GJQsqaUBKTNV-1">
          <mxGeometry x="165" y="340" width="120" height="60" as="geometry" />
        </mxCell>
        <mxCell id="OSCxxA4FSVDrNaCSg42i-7" value="第一阶段" style="html=1;whiteSpace=wrap;container=1;recursiveResize=0;collapsible=0;" vertex="1" parent="WIyWlLk6GJQsqaUBKTNV-1">
          <mxGeometry x="20" y="220" width="80" height="40" as="geometry" />
        </mxCell>
        <mxCell id="OSCxxA4FSVDrNaCSg42i-8" value="" style="triangle;html=1;whiteSpace=wrap;" vertex="1" parent="OSCxxA4FSVDrNaCSg42i-7">
          <mxGeometry x="20" y="20" width="20" height="30" as="geometry" />
        </mxCell>
        <mxCell id="OSCxxA4FSVDrNaCSg42i-9" value="第二阶段" style="html=1;whiteSpace=wrap;container=1;recursiveResize=0;collapsible=0;" vertex="1" parent="WIyWlLk6GJQsqaUBKTNV-1">
          <mxGeometry x="22" y="310" width="80" height="40" as="geometry" />
        </mxCell>
        <mxCell id="OSCxxA4FSVDrNaCSg42i-10" value="" style="triangle;html=1;whiteSpace=wrap;" vertex="1" parent="OSCxxA4FSVDrNaCSg42i-9">
          <mxGeometry x="20" y="20" width="20" height="30" as="geometry" />
        </mxCell>
        <mxCell id="OSCxxA4FSVDrNaCSg42i-11" value="第三阶段" style="html=1;whiteSpace=wrap;container=1;recursiveResize=0;collapsible=0;" vertex="1" parent="WIyWlLk6GJQsqaUBKTNV-1">
          <mxGeometry x="22" y="420" width="80" height="40" as="geometry" />
        </mxCell>
        <mxCell id="OSCxxA4FSVDrNaCSg42i-12" value="" style="triangle;html=1;whiteSpace=wrap;" vertex="1" parent="OSCxxA4FSVDrNaCSg42i-11">
          <mxGeometry x="20" y="20" width="20" height="30" as="geometry" />
        </mxCell>
        <mxCell id="OSCxxA4FSVDrNaCSg42i-28" style="edgeStyle=orthogonalEdgeStyle;rounded=0;orthogonalLoop=1;jettySize=auto;html=1;" edge="1" parent="WIyWlLk6GJQsqaUBKTNV-1" source="OSCxxA4FSVDrNaCSg42i-17">
          <mxGeometry relative="1" as="geometry">
            <mxPoint x="340" y="370" as="targetPoint" />
          </mxGeometry>
        </mxCell>
        <mxCell id="OSCxxA4FSVDrNaCSg42i-29" value="也产生波动" style="edgeLabel;html=1;align=center;verticalAlign=middle;resizable=0;points=[];" vertex="1" connectable="0" parent="OSCxxA4FSVDrNaCSg42i-28">
          <mxGeometry x="-0.4187" y="3" relative="1" as="geometry">
            <mxPoint as="offset" />
          </mxGeometry>
        </mxCell>
        <mxCell id="OSCxxA4FSVDrNaCSg42i-32" style="edgeStyle=orthogonalEdgeStyle;rounded=0;orthogonalLoop=1;jettySize=auto;html=1;exitX=0;exitY=0.5;exitDx=0;exitDy=0;" edge="1" parent="WIyWlLk6GJQsqaUBKTNV-1" source="OSCxxA4FSVDrNaCSg42i-17">
          <mxGeometry relative="1" as="geometry">
            <mxPoint x="140" y="370" as="targetPoint" />
          </mxGeometry>
        </mxCell>
        <mxCell id="OSCxxA4FSVDrNaCSg42i-34" value="否" style="edgeLabel;html=1;align=center;verticalAlign=middle;resizable=0;points=[];" vertex="1" connectable="0" parent="OSCxxA4FSVDrNaCSg42i-32">
          <mxGeometry x="0.1718" y="1" relative="1" as="geometry">
            <mxPoint as="offset" />
          </mxGeometry>
        </mxCell>
        <mxCell id="OSCxxA4FSVDrNaCSg42i-17" value="检测是否有相位的波动" style="rhombus;whiteSpace=wrap;html=1;strokeWidth=2;fillWeight=-1;hachureGap=8;fillStyle=cross-hatch;sketch=1;" vertex="1" parent="WIyWlLk6GJQsqaUBKTNV-1">
          <mxGeometry x="166" y="430" width="120" height="60" as="geometry" />
        </mxCell>
        <mxCell id="OSCxxA4FSVDrNaCSg42i-21" style="edgeStyle=orthogonalEdgeStyle;rounded=0;orthogonalLoop=1;jettySize=auto;html=1;exitX=1;exitY=0.5;exitDx=0;exitDy=0;entryX=0;entryY=0.5;entryDx=0;entryDy=0;" edge="1" parent="WIyWlLk6GJQsqaUBKTNV-1" source="OSCxxA4FSVDrNaCSg42i-20" target="OSCxxA4FSVDrNaCSg42i-0">
          <mxGeometry relative="1" as="geometry" />
        </mxCell>
        <mxCell id="OSCxxA4FSVDrNaCSg42i-20" value="20个一组" style="text;html=1;strokeColor=none;fillColor=none;align=center;verticalAlign=middle;whiteSpace=wrap;rounded=0;" vertex="1" parent="WIyWlLk6GJQsqaUBKTNV-1">
          <mxGeometry x="60" y="170" width="60" height="30" as="geometry" />
        </mxCell>
        <mxCell id="OSCxxA4FSVDrNaCSg42i-44" style="edgeStyle=orthogonalEdgeStyle;rounded=0;orthogonalLoop=1;jettySize=auto;html=1;exitX=0.5;exitY=1;exitDx=0;exitDy=0;" edge="1" parent="WIyWlLk6GJQsqaUBKTNV-1" source="OSCxxA4FSVDrNaCSg42i-24" target="OSCxxA4FSVDrNaCSg42i-43">
          <mxGeometry relative="1" as="geometry" />
        </mxCell>
        <mxCell id="OSCxxA4FSVDrNaCSg42i-24" value="切割开始" style="rounded=0;whiteSpace=wrap;html=1;" vertex="1" parent="WIyWlLk6GJQsqaUBKTNV-1">
          <mxGeometry x="390" y="100" width="90" height="40" as="geometry" />
        </mxCell>
        <mxCell id="OSCxxA4FSVDrNaCSg42i-38" value="第四阶段" style="rounded=0;whiteSpace=wrap;html=1;" vertex="1" parent="WIyWlLk6GJQsqaUBKTNV-1">
          <mxGeometry x="560" y="90" width="90" height="40" as="geometry" />
        </mxCell>
        <mxCell id="OSCxxA4FSVDrNaCSg42i-36" value="" style="triangle;html=1;whiteSpace=wrap;rotation=-180;" vertex="1" parent="WIyWlLk6GJQsqaUBKTNV-1">
          <mxGeometry x="555" y="220" width="20" height="30" as="geometry" />
        </mxCell>
        <mxCell id="OSCxxA4FSVDrNaCSg42i-52" style="edgeStyle=orthogonalEdgeStyle;rounded=0;orthogonalLoop=1;jettySize=auto;html=1;exitX=1;exitY=0.5;exitDx=0;exitDy=0;entryX=0;entryY=0.5;entryDx=0;entryDy=0;" edge="1" parent="WIyWlLk6GJQsqaUBKTNV-1" source="OSCxxA4FSVDrNaCSg42i-43" target="OSCxxA4FSVDrNaCSg42i-50">
          <mxGeometry relative="1" as="geometry" />
        </mxCell>
        <mxCell id="OSCxxA4FSVDrNaCSg42i-43" value="等待稳定" style="rounded=0;whiteSpace=wrap;html=1;" vertex="1" parent="WIyWlLk6GJQsqaUBKTNV-1">
          <mxGeometry x="390" y="200" width="90" height="40" as="geometry" />
        </mxCell>
        <mxCell id="OSCxxA4FSVDrNaCSg42i-50" value="结束" style="rounded=0;whiteSpace=wrap;html=1;" vertex="1" parent="WIyWlLk6GJQsqaUBKTNV-1">
          <mxGeometry x="550" y="200" width="90" height="40" as="geometry" />
        </mxCell>
        <mxCell id="OSCxxA4FSVDrNaCSg42i-51" value="" style="triangle;html=1;whiteSpace=wrap;rotation=-180;" vertex="1" parent="WIyWlLk6GJQsqaUBKTNV-1">
          <mxGeometry x="565" y="230" width="20" height="30" as="geometry" />
        </mxCell>
      </root>
    </mxGraphModel>
  </diagram>
</mxfile>
